<svg xmlns="http://www.w3.org/2000/svg" viewBox="0 0 640 800" width="640" height="800" role="presentation"><defs><radialGradient id="b" cx="50%" cy="50%" r="50%"><stop offset="0%" stop-color="#ff8fb8" stop-opacity=".34"/><stop offset="55%" stop-color="#ffc247" stop-opacity=".15"/><stop offset="100%" stop-color="#8b5cf6" stop-opacity="0"/></radialGradient></defs><ellipse cx="320" cy="400" rx="250" ry="250" fill="url(#b)"/><g fill="rgb(192,96,192)" opacity="0.6"><circle cx="458" cy="438" r="3"/><circle cx="435" cy="377" r="3"/><circle cx="438" cy="452" r="3"/><circle cx="275" cy="535" r="3"/><circle cx="393" cy="291" r="3"/><circle cx="238" cy="322" r="3"/><circle cx="190" cy="330" r="3"/><circle cx="467" cy="384" r="3"/><circle cx="238" cy="526" r="3"/><circle cx="319" cy="541" r="3"/><circle cx="323" cy="273" r="3"/><circle cx="263" cy="267" r="3"/><circle cx="301" cy="245" r="3"/><circle cx="197" cy="481" r="3"/><circle cx="382" cy="293" r="3"/><circle cx="450" cy="409" r="3"/><circle cx="188" cy="438" r="3"/><circle cx="189" cy="340" r="3"/><circle cx="334" cy="558" r="3"/><circle cx="438" cy="333" r="3"/><circle cx="232" cy="480" r="3"/><circle cx="400" cy="309" r="3"/><circle cx="443" cy="341" r="3"/></g><g fill="rgb(240,120,144)" opacity="0.6"><circle cx="575" cy="485" r="3"/><circle cx="160" cy="617" r="3"/><circle cx="573" cy="315" r="3"/><circle cx="53" cy="454" r="3"/><circle cx="592" cy="351" r="3"/><circle cx="404" cy="656" r="3"/><circle cx="149" cy="193" r="3"/><circle cx="50" cy="405" r="3"/><circle cx="411" cy="142" r="3"/><circle cx="174" cy="159" r="3"/><circle cx="585" cy="400" r="3"/><circle cx="220" cy="156" r="3"/><circle cx="587" cy="487" r="3"/><circle cx="84" cy="272" r="3"/><circle cx="96" cy="542" r="3"/><circle cx="136" cy="592" r="3"/><circle cx="50" cy="459" r="3"/><circle cx="145" cy="185" r="3"/><circle cx="46" cy="466" r="3"/><circle cx="393" cy="677" r="3"/></g><g fill="rgb(192,96,192)" opacity="0.2"><circle cx="330" cy="555" r="1"/><circle cx="178" cy="429" r="1"/><circle cx="351" cy="505" r="1"/><circle cx="190" cy="479" r="1"/><circle cx="186" cy="429" r="1"/><circle cx="459" cy="365" r="2"/><circle cx="429" cy="482" r="1"/><circle cx="463" cy="373" r="1"/><circle cx="335" cy="253" r="1"/><circle cx="179" cy="391" r="1"/><circle cx="454" cy="339" r="1"/><circle cx="417" cy="310" r="1"/><circle cx="186" cy="400" r="2"/><circle cx="268" cy="515" r="2"/><circle cx="343" cy="547" r="1"/><circle cx="239" cy="510" r="1"/></g><g fill="rgb(240,96,168)" opacity="0.6"><circle cx="150" cy="542" r="3"/><circle cx="115" cy="456" r="3"/><circle cx="348" cy="166" r="3"/><circle cx="180" cy="233" r="3"/><circle cx="233" cy="603" r="3"/><circle cx="361" cy="170" r="3"/><circle cx="397" cy="602" r="3"/><circle cx="341" cy="184" r="3"/><circle cx="202" cy="580" r="3"/><circle cx="489" cy="263" r="3"/><circle cx="174" cy="575" r="3"/><circle cx="513" cy="294" r="3"/><circle cx="539" cy="471" r="3"/><circle cx="135" cy="267" r="3"/><circle cx="395" cy="191" r="3"/><circle cx="372" cy="198" r="3"/><circle cx="420" cy="598" r="3"/><circle cx="213" cy="604" r="3"/><circle cx="364" cy="190" r="3"/><circle cx="484" cy="538" r="3"/><circle cx="139" cy="514" r="3"/><circle cx="109" cy="453" r="3"/><circle cx="160" cy="538" r="3"/><circle cx="252" cy="604" r="3"/><circle cx="114" cy="292" r="3"/><circle cx="254" cy="604" r="3"/><circle cx="511" cy="508" r="3"/><circle cx="410" cy="599" r="3"/><circle cx="523" cy="314" r="3"/><circle cx="209" cy="602" r="3"/><circle cx="153" cy="531" r="3"/><circle cx="112" cy="435" r="3"/><circle cx="321" cy="177" r="3"/><circle cx="315" cy="621" r="3"/><circle cx="137" cy="504" r="3"/><circle cx="428" cy="216" r="3"/><circle cx="350" cy="172" r="3"/><circle cx="430" cy="604" r="3"/><circle cx="391" cy="600" r="3"/><circle cx="109" cy="411" r="3"/><circle cx="232" cy="180" r="3"/><circle cx="461" cy="572" r="3"/></g><g fill="rgb(168,96,216)" opacity="0.6"><circle cx="255" cy="416" r="3"/><circle cx="259" cy="363" r="3"/><circle cx="305" cy="337" r="3"/><circle cx="388" cy="381" r="3"/><circle cx="407" cy="399" r="3"/><circle cx="259" cy="399" r="3"/><circle cx="237" cy="443" r="3"/><circle cx="373" cy="473" r="3"/><circle cx="262" cy="366" r="3"/><circle cx="267" cy="357" r="3"/><circle cx="260" cy="355" r="3"/><circle cx="404" cy="413" r="3"/><circle cx="289" cy="458" r="3"/><circle cx="231" cy="381" r="3"/><circle cx="237" cy="374" r="3"/></g><g fill="rgb(216,96,168)" opacity="0.6"><circle cx="249" cy="216" r="3"/><circle cx="511" cy="403" r="3"/><circle cx="507" cy="321" r="3"/><circle cx="214" cy="258" r="3"/><circle cx="216" cy="562" r="3"/><circle cx="132" cy="425" r="3"/><circle cx="514" cy="355" r="3"/><circle cx="252" cy="573" r="3"/><circle cx="258" cy="574" r="3"/><circle cx="465" cy="292" r="3"/><circle cx="162" cy="327" r="3"/><circle cx="484" cy="274" r="3"/><circle cx="510" cy="395" r="3"/><circle cx="451" cy="530" r="3"/><circle cx="306" cy="198" r="3"/><circle cx="247" cy="583" r="3"/><circle cx="455" cy="279" r="3"/><circle cx="289" cy="592" r="3"/><circle cx="253" cy="245" r="3"/><circle cx="220" cy="539" r="3"/><circle cx="116" cy="427" r="3"/><circle cx="294" cy="231" r="3"/><circle cx="135" cy="429" r="3"/><circle cx="446" cy="274" r="3"/><circle cx="413" cy="225" r="3"/><circle cx="491" cy="480" r="3"/><circle cx="473" cy="524" r="3"/><circle cx="182" cy="259" r="3"/><circle cx="243" cy="557" r="3"/><circle cx="322" cy="606" r="3"/><circle cx="499" cy="306" r="3"/><circle cx="521" cy="404" r="3"/><circle cx="430" cy="535" r="3"/><circle cx="153" cy="494" r="3"/><circle cx="339" cy="223" r="3"/><circle cx="491" cy="406" r="3"/><circle cx="173" cy="486" r="3"/><circle cx="492" cy="497" r="3"/><circle cx="139" cy="308" r="3"/><circle cx="458" cy="524" r="3"/><circle cx="492" cy="426" r="3"/><circle cx="218" cy="566" r="3"/><circle cx="164" cy="326" r="3"/><circle cx="172" cy="312" r="3"/></g><g fill="rgb(216,96,168)" opacity="0.4"><circle cx="146" cy="425" r="2"/><circle cx="336" cy="593" r="2"/><circle cx="283" cy="217" r="2"/><circle cx="195" cy="254" r="2"/><circle cx="348" cy="221" r="2"/><circle cx="167" cy="541" r="2"/><circle cx="267" cy="230" r="2"/><circle cx="484" cy="506" r="2"/><circle cx="458" cy="260" r="2"/><circle cx="247" cy="585" r="2"/><circle cx="306" cy="227" r="2"/><circle cx="490" cy="345" r="2"/><circle cx="459" cy="303" r="2"/><circle cx="519" cy="452" r="2"/><circle cx="290" cy="568" r="2"/><circle cx="418" cy="567" r="2"/><circle cx="318" cy="206" r="2"/><circle cx="495" cy="296" r="2"/><circle cx="122" cy="434" r="2"/><circle cx="358" cy="204" r="2"/><circle cx="375" cy="571" r="2"/><circle cx="142" cy="363" r="2"/><circle cx="154" cy="488" r="2"/><circle cx="344" cy="203" r="2"/></g><g fill="rgb(192,96,192)" opacity="0.3"><circle cx="255" cy="312" r="2"/><circle cx="307" cy="543" r="2"/><circle cx="279" cy="537" r="2"/><circle cx="458" cy="436" r="2"/><circle cx="220" cy="316" r="2"/><circle cx="253" cy="514" r="2"/><circle cx="189" cy="347" r="2"/><circle cx="224" cy="482" r="2"/><circle cx="220" cy="482" r="2"/><circle cx="314" cy="549" r="2"/><circle cx="391" cy="517" r="2"/><circle cx="248" cy="494" r="2"/><circle cx="411" cy="326" r="2"/><circle cx="204" cy="507" r="2"/><circle cx="412" cy="485" r="2"/><circle cx="267" cy="255" r="2"/><circle cx="175" cy="401" r="2"/><circle cx="453" cy="348" r="2"/><circle cx="455" cy="437" r="2"/><circle cx="398" cy="524" r="2"/><circle cx="385" cy="271" r="2"/></g><g fill="rgb(216,96,168)" opacity="0.3"><circle cx="185" cy="546" r="2"/><circle cx="443" cy="558" r="2"/><circle cx="334" cy="211" r="2"/><circle cx="160" cy="313" r="2"/><circle cx="476" cy="307" r="2"/><circle cx="384" cy="570" r="2"/><circle cx="122" cy="411" r="2"/><circle cx="474" cy="500" r="2"/><circle cx="439" cy="536" r="2"/><circle cx="141" cy="417" r="2"/><circle cx="513" cy="328" r="2"/><circle cx="414" cy="555" r="2"/><circle cx="335" cy="193" r="2"/><circle cx="188" cy="529" r="2"/><circle cx="307" cy="223" r="2"/><circle cx="514" cy="338" r="2"/></g><g fill="rgb(240,120,144)" opacity="0.2"><circle cx="429" cy="154" r="1"/><circle cx="345" cy="680" r="1"/><circle cx="452" cy="172" r="1"/><circle cx="589" cy="481" r="1"/><circle cx="153" cy="604" r="1"/><circle cx="576" cy="456" r="1"/></g><g fill="rgb(240,96,168)" opacity="0.4"><circle cx="516" cy="279" r="2"/><circle cx="99" cy="411" r="2"/><circle cx="161" cy="250" r="2"/><circle cx="168" cy="578" r="2"/><circle cx="148" cy="282" r="2"/><circle cx="237" cy="174" r="2"/><circle cx="161" cy="579" r="2"/><circle cx="276" cy="623" r="2"/><circle cx="92" cy="444" r="2"/></g><g fill="rgb(168,96,192)" opacity="0.6"><circle cx="218" cy="367" r="3"/><circle cx="230" cy="361" r="3"/><circle cx="338" cy="497" r="3"/><circle cx="318" cy="294" r="3"/><circle cx="237" cy="351" r="3"/></g><g fill="rgb(240,96,144)" opacity="0.4"><circle cx="423" cy="179" r="2"/><circle cx="70" cy="417" r="2"/><circle cx="224" cy="176" r="2"/><circle cx="354" cy="156" r="2"/><circle cx="234" cy="642" r="2"/><circle cx="562" cy="479" r="2"/><circle cx="108" cy="276" r="2"/></g><g fill="rgb(240,96,144)" opacity="0.6"><circle cx="89" cy="317" r="3"/><circle cx="135" cy="219" r="3"/><circle cx="126" cy="230" r="3"/><circle cx="494" cy="227" r="3"/><circle cx="469" cy="592" r="3"/><circle cx="180" cy="181" r="3"/><circle cx="112" cy="270" r="3"/><circle cx="512" cy="240" r="3"/><circle cx="112" cy="274" r="3"/><circle cx="75" cy="474" r="3"/><circle cx="456" cy="193" r="3"/><circle cx="526" cy="541" r="3"/><circle cx="528" cy="276" r="3"/><circle cx="107" cy="545" r="3"/><circle cx="110" cy="276" r="3"/><circle cx="562" cy="412" r="3"/></g><g fill="rgb(240,96,168)" opacity="0.5"><circle cx="517" cy="479" r="2"/><circle cx="89" cy="335" r="3"/><circle cx="199" cy="579" r="3"/><circle cx="389" cy="604" r="2"/><circle cx="536" cy="373" r="3"/><circle cx="518" cy="509" r="3"/><circle cx="108" cy="418" r="2"/><circle cx="177" cy="566" r="2"/><circle cx="212" cy="203" r="3"/><circle cx="449" cy="226" r="3"/><circle cx="543" cy="376" r="2"/><circle cx="145" cy="255" r="3"/><circle cx="122" cy="487" r="2"/><circle cx="532" cy="426" r="3"/><circle cx="539" cy="329" r="3"/><circle cx="103" cy="454" r="2"/><circle cx="554" cy="437" r="3"/></g><g fill="rgb(192,96,192)" opacity="0.4"><circle cx="429" cy="428" r="2"/><circle cx="435" cy="490" r="2"/><circle cx="209" cy="362" r="2"/><circle cx="244" cy="264" r="2"/><circle cx="421" cy="296" r="2"/><circle cx="288" cy="537" r="2"/><circle cx="429" cy="411" r="2"/><circle cx="190" cy="427" r="2"/><circle cx="212" cy="379" r="2"/><circle cx="380" cy="257" r="2"/><circle cx="441" cy="502" r="2"/><circle cx="224" cy="320" r="2"/><circle cx="438" cy="305" r="2"/><circle cx="456" cy="329" r="2"/><circle cx="427" cy="287" r="2"/></g><g fill="rgb(240,120,120)" opacity="0.5"><circle cx="422" cy="121" r="2"/><circle cx="29" cy="380" r="3"/><circle cx="395" cy="689" r="3"/></g><g fill="rgb(240,144,120)" opacity="0.4"><circle cx="489" cy="688" r="2"/><circle cx="131" cy="134" r="2"/><circle cx="599" cy="574" r="2"/><circle cx="548" cy="178" r="2"/><circle cx="627" cy="491" r="2"/><circle cx="157" cy="687" r="2"/></g><g fill="rgb(168,96,216)" opacity="0.4"><circle cx="292" cy="460" r="2"/><circle cx="377" cy="448" r="2"/><circle cx="262" cy="387" r="2"/><circle cx="272" cy="334" r="2"/><circle cx="276" cy="345" r="2"/><circle cx="281" cy="325" r="2"/><circle cx="361" cy="337" r="2"/><circle cx="277" cy="482" r="2"/><circle cx="381" cy="374" r="2"/><circle cx="350" cy="469" r="2"/><circle cx="261" cy="330" r="2"/><circle cx="391" cy="451" r="2"/></g><g fill="rgb(216,96,192)" opacity="0.3"><circle cx="210" cy="276" r="2"/><circle cx="403" cy="537" r="2"/><circle cx="282" cy="242" r="2"/><circle cx="471" cy="471" r="2"/></g><g fill="rgb(216,96,192)" opacity="0.4"><circle cx="213" cy="276" r="2"/><circle cx="438" cy="291" r="2"/><circle cx="168" cy="340" r="2"/><circle cx="475" cy="365" r="2"/><circle cx="292" cy="556" r="2"/><circle cx="462" cy="478" r="2"/></g><g fill="rgb(192,96,192)" opacity="0.5"><circle cx="436" cy="407" r="3"/><circle cx="401" cy="267" r="2"/><circle cx="344" cy="539" r="3"/><circle cx="432" cy="497" r="3"/><circle cx="393" cy="511" r="3"/><circle cx="275" cy="542" r="2"/><circle cx="212" cy="371" r="3"/><circle cx="408" cy="474" r="3"/><circle cx="276" cy="536" r="2"/><circle cx="229" cy="292" r="3"/><circle cx="165" cy="383" r="2"/><circle cx="182" cy="387" r="2"/><circle cx="353" cy="286" r="3"/><circle cx="372" cy="278" r="2"/><circle cx="220" cy="479" r="3"/><circle cx="455" cy="454" r="3"/><circle cx="271" cy="532" r="2"/><circle cx="273" cy="249" r="2"/></g><g fill="rgb(240,120,144)" opacity="0.4"><circle cx="444" cy="147" r="2"/><circle cx="570" cy="268" r="2"/><circle cx="348" cy="131" r="2"/><circle cx="500" cy="208" r="2"/><circle cx="530" cy="590" r="2"/><circle cx="158" cy="605" r="2"/><circle cx="150" cy="169" r="2"/><circle cx="505" cy="181" r="2"/><circle cx="106" cy="551" r="2"/></g><g fill="rgb(240,168,96)" opacity="0.1"><circle cx="591" cy="138" r="1"/></g><g fill="rgb(216,96,168)" opacity="0.5"><circle cx="321" cy="205" r="3"/><circle cx="507" cy="438" r="2"/><circle cx="120" cy="357" r="3"/><circle cx="503" cy="451" r="3"/><circle cx="437" cy="270" r="3"/><circle cx="317" cy="226" r="3"/><circle cx="150" cy="440" r="3"/><circle cx="521" cy="448" r="2"/><circle cx="478" cy="341" r="3"/><circle cx="258" cy="212" r="3"/><circle cx="250" cy="211" r="2"/><circle cx="302" cy="230" r="2"/><circle cx="487" cy="505" r="2"/><circle cx="461" cy="305" r="3"/><circle cx="216" cy="572" r="3"/><circle cx="126" cy="367" r="3"/><circle cx="148" cy="456" r="3"/><circle cx="329" cy="207" r="2"/><circle cx="243" cy="577" r="3"/><circle cx="230" cy="556" r="3"/><circle cx="120" cy="385" r="3"/></g><g fill="rgb(240,144,120)" opacity="0.3"><circle cx="270" cy="726" r="2"/><circle cx="130" cy="122" r="2"/><circle cx="503" cy="124" r="2"/><circle cx="99" cy="149" r="2"/><circle cx="133" cy="679" r="2"/><circle cx="639" cy="343" r="2"/></g><g fill="rgb(240,96,144)" opacity="0.5"><circle cx="403" cy="629" r="3"/><circle cx="76" cy="371" r="2"/><circle cx="151" cy="583" r="3"/><circle cx="470" cy="208" r="3"/><circle cx="150" cy="215" r="3"/><circle cx="217" cy="167" r="2"/><circle cx="333" cy="148" r="2"/><circle cx="266" cy="655" r="3"/><circle cx="201" cy="175" r="2"/><circle cx="301" cy="157" r="3"/><circle cx="66" cy="395" r="3"/><circle cx="264" cy="638" r="3"/><circle cx="559" cy="497" r="2"/><circle cx="85" cy="298" r="3"/></g><g fill="rgb(144,96,216)" opacity="0.5"><circle cx="282" cy="434" r="3"/></g><g fill="rgb(240,144,96)" opacity="0.2"><circle cx="52" cy="654" r="1"/><circle cx="36" cy="629" r="1"/></g><g fill="rgb(216,96,168)" opacity="0.1"><circle cx="351" cy="593" r="1"/><circle cx="487" cy="370" r="1"/><circle cx="490" cy="457" r="1"/><circle cx="124" cy="384" r="1"/></g><g fill="rgb(168,96,216)" opacity="0.3"><circle cx="389" cy="338" r="2"/><circle cx="272" cy="474" r="2"/><circle cx="254" cy="436" r="2"/><circle cx="241" cy="362" r="2"/><circle cx="246" cy="353" r="2"/><circle cx="265" cy="347" r="2"/><circle cx="335" cy="472" r="2"/></g><g fill="rgb(240,144,96)" opacity="0.5"><circle cx="527" cy="116" r="2"/><circle cx="21" cy="237" r="3"/></g><g fill="rgb(144,72,216)" opacity="0.3"><circle cx="298" cy="369" r="2"/><circle cx="308" cy="366" r="2"/></g><g fill="rgb(240,120,144)" opacity="0.3"><circle cx="587" cy="491" r="2"/><circle cx="174" cy="164" r="2"/></g><g fill="rgb(240,144,96)" opacity="0.4"><circle cx="77" cy="662" r="2"/><circle cx="314" cy="760" r="2"/></g><g fill="rgb(216,96,168)" opacity="0.2"><circle cx="397" cy="588" r="1"/><circle cx="505" cy="475" r="1"/><circle cx="291" cy="232" r="1"/><circle cx="237" cy="588" r="1"/><circle cx="143" cy="408" r="1"/><circle cx="211" cy="247" r="1"/><circle cx="227" cy="562" r="1"/><circle cx="470" cy="487" r="1"/><circle cx="113" cy="424" r="1"/><circle cx="160" cy="500" r="1"/></g><g fill="rgb(240,120,120)" opacity="0.6"><circle cx="597" cy="493" r="3"/><circle cx="28" cy="433" r="3"/><circle cx="289" cy="699" r="3"/><circle cx="605" cy="263" r="3"/><circle cx="220" cy="126" r="3"/><circle cx="89" cy="220" r="3"/><circle cx="224" cy="123" r="3"/><circle cx="79" cy="570" r="3"/><circle cx="305" cy="98" r="3"/><circle cx="28" cy="435" r="3"/><circle cx="128" cy="635" r="3"/><circle cx="379" cy="712" r="3"/></g><g fill="rgb(240,96,168)" opacity="0.3"><circle cx="151" cy="526" r="2"/><circle cx="117" cy="455" r="2"/><circle cx="143" cy="535" r="2"/><circle cx="94" cy="429" r="2"/><circle cx="516" cy="312" r="2"/><circle cx="476" cy="228" r="2"/></g><g fill="rgb(240,144,120)" opacity="0.2"><circle cx="160" cy="682" r="1"/><circle cx="608" cy="260" r="1"/><circle cx="17" cy="528" r="1"/><circle cx="578" cy="185" r="1"/><circle cx="597" cy="558" r="1"/><circle cx="76" cy="177" r="1"/></g><g fill="rgb(192,96,192)" opacity="0.1"><circle cx="374" cy="259" r="1"/><circle cx="216" cy="456" r="1"/><circle cx="248" cy="287" r="1"/><circle cx="391" cy="266" r="1"/><circle cx="452" cy="314" r="1"/><circle cx="228" cy="474" r="1"/><circle cx="307" cy="261" r="1"/></g><g fill="rgb(240,120,144)" opacity="0.5"><circle cx="274" cy="677" r="3"/><circle cx="527" cy="590" r="3"/><circle cx="588" cy="364" r="3"/></g><g fill="rgb(168,96,216)" opacity="0.2"><circle cx="356" cy="343" r="1"/><circle cx="381" cy="361" r="1"/><circle cx="266" cy="327" r="1"/><circle cx="363" cy="337" r="1"/><circle cx="403" cy="419" r="1"/><circle cx="278" cy="352" r="1"/><circle cx="240" cy="398" r="1"/></g><g fill="rgb(168,96,192)" opacity="0.5"><circle cx="245" cy="330" r="2"/><circle cx="277" cy="312" r="2"/></g><g fill="rgb(240,96,168)" opacity="0.2"><circle cx="319" cy="640" r="1"/><circle cx="430" cy="599" r="1"/><circle cx="393" cy="197" r="1"/><circle cx="89" cy="354" r="1"/><circle cx="122" cy="266" r="1"/><circle cx="138" cy="251" r="1"/><circle cx="131" cy="549" r="1"/><circle cx="91" cy="328" r="1"/><circle cx="277" cy="187" r="1"/></g><g fill="rgb(240,96,144)" opacity="0.1"><circle cx="543" cy="505" r="1"/><circle cx="75" cy="421" r="1"/></g><g fill="rgb(216,96,192)" opacity="0.6"><circle cx="280" cy="241" r="3"/><circle cx="153" cy="411" r="3"/><circle cx="470" cy="325" r="3"/><circle cx="165" cy="346" r="3"/><circle cx="404" cy="256" r="3"/></g><g fill="rgb(240,120,120)" opacity="0.4"><circle cx="26" cy="422" r="2"/><circle cx="404" cy="114" r="2"/><circle cx="606" cy="275" r="2"/><circle cx="560" cy="222" r="2"/></g><g fill="rgb(144,72,216)" opacity="0.5"><circle cx="289" cy="378" r="3"/><circle cx="297" cy="401" r="2"/><circle cx="327" cy="381" r="3"/><circle cx="295" cy="375" r="3"/><circle cx="343" cy="370" r="2"/><circle cx="331" cy="369" r="3"/></g><g fill="rgb(168,96,192)" opacity="0.3"><circle cx="296" cy="305" r="2"/><circle cx="353" cy="304" r="2"/><circle cx="331" cy="304" r="2"/></g><g fill="rgb(240,144,120)" opacity="0.5"><circle cx="374" cy="723" r="2"/><circle cx="639" cy="329" r="3"/><circle cx="297" cy="724" r="2"/></g><g fill="rgb(240,96,144)" opacity="0.2"><circle cx="325" cy="648" r="1"/><circle cx="458" cy="197" r="1"/></g><g fill="rgb(144,72,216)" opacity="0.4"><circle cx="287" cy="379" r="2"/><circle cx="348" cy="424" r="2"/><circle cx="336" cy="359" r="2"/></g><g fill="rgb(240,120,120)" opacity="0.3"><circle cx="529" cy="632" r="2"/><circle cx="413" cy="116" r="2"/><circle cx="563" cy="580" r="2"/><circle cx="42" cy="272" r="2"/><circle cx="515" cy="644" r="2"/></g><g fill="rgb(120,72,240)" opacity="0.2"><circle cx="321" cy="403" r="1"/></g><g fill="rgb(240,144,96)" opacity="0.3"><circle cx="191" cy="75" r="2"/></g><g fill="rgb(240,96,168)" opacity="0.1"><circle cx="497" cy="237" r="1"/><circle cx="138" cy="249" r="1"/></g><g fill="rgb(168,96,216)" opacity="0.5"><circle cx="244" cy="408" r="3"/><circle cx="402" cy="365" r="3"/></g><g fill="rgb(216,96,192)" opacity="0.2"><circle cx="237" cy="539" r="1"/><circle cx="400" cy="539" r="1"/><circle cx="162" cy="360" r="1"/></g><g fill="rgb(216,96,192)" opacity="0.5"><circle cx="173" cy="475" r="3"/><circle cx="277" cy="239" r="3"/><circle cx="446" cy="290" r="2"/><circle cx="466" cy="334" r="2"/><circle cx="390" cy="551" r="3"/></g><g fill="rgb(240,120,120)" opacity="0.2"><circle cx="584" cy="536" r="1"/><circle cx="604" cy="339" r="1"/></g><g fill="rgb(144,96,216)" opacity="0.4"><circle cx="327" cy="448" r="2"/></g><g fill="rgb(144,72,216)" opacity="0.2"><circle cx="304" cy="418" r="1"/><circle cx="286" cy="378" r="1"/><circle cx="292" cy="386" r="1"/></g><g fill="rgb(240,120,120)" opacity="0.1"><circle cx="599" cy="253" r="1"/><circle cx="563" cy="218" r="1"/><circle cx="86" cy="186" r="1"/></g><g fill="rgb(168,96,192)" opacity="0.2"><circle cx="231" cy="458" r="1"/><circle cx="268" cy="321" r="1"/></g><g fill="rgb(144,96,216)" opacity="0.6"><circle cx="275" cy="436" r="3"/><circle cx="309" cy="353" r="3"/><circle cx="269" cy="407" r="3"/><circle cx="341" cy="448" r="3"/></g><g fill="rgb(240,96,144)" opacity="0.3"><circle cx="262" cy="158" r="2"/><circle cx="548" cy="307" r="2"/></g><g fill="rgb(144,72,216)" opacity="0.6"><circle cx="310" cy="433" r="3"/><circle cx="346" cy="388" r="3"/></g><g fill="rgb(144,72,240)" opacity="0.4"><circle cx="306" cy="415" r="2"/><circle cx="314" cy="412" r="2"/></g><g fill="rgb(240,144,96)" opacity="0.1"><circle cx="98" cy="683" r="1"/><circle cx="382" cy="738" r="1"/></g><g fill="rgb(240,144,96)" opacity="0.6"><circle cx="194" cy="83" r="3"/></g><g fill="rgb(144,96,216)" opacity="0.2"><circle cx="362" cy="431" r="1"/></g></svg>